<svg
  width="330"
  height="128"
  viewBox="0 0 330 128"
  xmlns="http://www.w3.org/2000/svg"
>
  <defs>
    <linearGradient id="shieldGradient" x1="0" y1="0" x2="0" y2="1">
      <stop offset="0%" stop-color="#CFEAF0" />
      <stop offset="100%" stop-color="#8DBBC4" />
    </linearGradient>

    <filter id="shieldShadow" x="-20%" y="-20%" width="140%" height="140%">
      <feDropShadow dx="0" dy="2" stdDeviation="3" flood-opacity="0.22" />
    </filter>
  </defs>

  <!-- Icon -->
  <g transform="translate(16,14)" filter="url(#shieldShadow)">
    <path
      d="M48 0 L18 10 a6 6 0 0 0 -4 5.7 v26.5
         c0 16.5 11.2 30.4 34 38.8
         c22.8 -8.4 34 -22.3 34 -38.8
         V15.7 a6 6 0 0 0 -4 -5.7 Z"
      fill="url(#shieldGradient)"
      stroke="#546B70"
      stroke-width="2.7"
      stroke-linejoin="round"
    />

    <path
      d="M22 48 C31 44 39 41 47 34
         C53 28 59 24 70 22
         V38 C70 49 62 59 48 65
         C35 59 27 54 22 48 Z"
      fill="#1E4C54"
    />

    <path
      d="M39 49 C42 46 49 43 54 39
         C59 35 64 32 69 30"
      fill="none"
      stroke="#F9FBFC"
      stroke-width="2.4"
      stroke-linecap="round"
      stroke-dasharray="4 3"
      opacity="0.95"
    />

    <g transform="translate(48,26)">
      <path
        d="M0 -13 C-7.5 -13 -13 -7.6 -13 -1
           C-13 5.2 -9.1 10.3 -4.6 16.8
           C-2.6 19.8 2.6 19.8 4.6 16.8
           C9.1 10.3 13 5.2 13 -1
           C13 -7.6 7.5 -13 0 -13 Z"
        fill="#FF6B3D"
        stroke="#C54821"
        stroke-width="1.4"
      />
      <circle cx="0" cy="-3.5" r="5.2" fill="#FFFFFF" />
    </g>
  </g>

  <!-- Text (moved closer) -->
  <text
    x="110"
    y="65"
    font-family="Arial, Helvetica, sans-serif"
    font-size="32"
    font-weight="700"
    fill="#1E4C54"
  >
    SafeRoute
  </text>
</svg>
